<mxfile host="app.diagrams.net" modified="2024-05-23T08:47:14.378Z" agent="Mozilla/5.0 (Macintosh; Intel Mac OS X 10_15_7) AppleWebKit/537.36 (KHTML, like Gecko) Chrome/124.0.0.0 Safari/537.36" version="24.4.0" etag="e9-LDa4hnYUpBkyrHw_7" type="github">
  <diagram name="第 1 页" id="Tl1m-M1DzGd_9yrO3TIG">
    <mxGraphModel>
      <root>
        <mxCell id="0" />
        <mxCell id="1" parent="0" />
      </root>
    </mxGraphModel>
  </diagram>
</mxfile>
